<?xml version="1.0" standalone="no"?>
<!DOCTYPE svg PUBLIC "-//W3C//DTD SVG 20010904//EN"
 "http://www.w3.org/TR/2001/REC-SVG-20010904/DTD/svg10.dtd">
<svg version="1.0" xmlns="http://www.w3.org/2000/svg"
 width="700.000000pt" height="700.000000pt" viewBox="0 0 700.000000 700.000000"
 preserveAspectRatio="xMidYMid meet">
<metadata>
Created by potrace 1.14, written by Peter Selinger 2001-2017
</metadata>
<g transform="translate(0.000000,700.000000) scale(0.100000,-0.100000)"
fill="#000000" stroke="none">
<path d="M441 5638 c-3 -9 -6 -983 -5 -2165 l1 -2148 434 -1 435 -1 -1 949 0
948 732 0 733 0 0 340 c0 265 -3 340 -12 341 -7 0 -337 1 -733 2 l-719 2 0
530 -1 530 770 5 770 5 0 337 0 338 -45 0 c-25 1 -564 2 -1199 3 -1075 2
-1154 1 -1160 -15z"/>
<path d="M3327 5650 c-10 -4 -13 -78 -13 -326 l0 -322 667 1 c367 0 671 -3
676 -6 10 -6 9 -245 -1 -320 -19 -135 -84 -221 -218 -286 -65 -32 -635 -256
-1074 -422 l-50 -19 0 -360 c0 -198 3 -360 8 -360 7 0 76 27 156 60 12 6 32
14 45 20 12 5 249 102 527 215 654 268 666 273 767 369 51 48 88 108 97 161 8
44 12 39 26 -27 63 -305 280 -528 575 -592 86 -18 333 -14 415 7 190 50 312
126 417 263 61 78 143 271 159 372 3 20 8 40 10 43 8 14 34 263 40 384 9 187
9 1133 1 1142 -8 8 -3210 11 -3230 3z m2722 -857 c-3 -275 -25 -407 -85 -512
-73 -126 -172 -179 -338 -179 -136 0 -219 30 -297 108 -112 112 -151 275 -153
630 l-1 155 180 5 c99 3 296 4 438 2 l258 -3 -2 -206z"/>
</g>
</svg>
